<?xml version="1.0" standalone="no"?><!DOCTYPE svg PUBLIC "-//W3C//DTD SVG 1.1//EN" "http://www.w3.org/Graphics/SVG/1.1/DTD/svg11.dtd"><svg t="1492317076797" class="icon" style="" viewBox="0 0 1482 1024" version="1.1" xmlns="http://www.w3.org/2000/svg" p-id="2374" xmlns:xlink="http://www.w3.org/1999/xlink" width="69.46875" height="48"><defs><style type="text/css"></style></defs><path d="M1480.97415 103.072396C1480.97415 85.113457 1475.782229 68.431219 1467.270884 53.706591L947.823456 530.767517 1469.739174 966.63353C1476.718477 953.015377 1480.97415 937.865182 1480.97415 921.778738L1480.97415 103.072396 1480.97415 103.072396ZM909.26706 566.259829 796.151276 670.18336C780.74574 684.312194 760.658964 691.37661 740.487075 691.37661 720.315186 691.37661 700.22841 684.312194 684.822874 670.18336L570.941069 565.408694 41.36514 1002.381182C59.238966 1015.743995 81.368465 1024 105.796027 1024L1375.178123 1024C1397.562962 1024 1418.330646 1017.190923 1435.438451 1005.615493L909.26706 566.259829 909.26706 566.259829ZM721.336547 633.073892C731.720389 642.691713 749.338875 642.691713 759.637603 633.073892L1430.927437 16.512011C1414.755881 6.63885 1395.77558 0.766021 1375.178123 0.766021L105.796027 0.766021C85.624138 0.766021 66.899177 6.468623 50.897847 16.00133L721.336547 633.073892 721.336547 633.073892ZM14.128834 52.770343C5.362148 67.750312 0 84.68789 0 103.072396L0 921.778738C0 936.077799 3.064084 949.695952 8.596459 962.122517L532.469786 529.916383 14.128834 52.770343 14.128834 52.770343Z" p-id="2375" fill="#1296db"></path></svg>