<?xml version="1.0" standalone="no"?><!DOCTYPE svg PUBLIC "-//W3C//DTD SVG 1.1//EN" "http://www.w3.org/Graphics/SVG/1.1/DTD/svg11.dtd"><svg t="1492313751861" class="icon" style="" viewBox="0 0 1024 1024" version="1.1" xmlns="http://www.w3.org/2000/svg" p-id="3626" xmlns:xlink="http://www.w3.org/1999/xlink" width="48" height="48"><defs><style type="text/css"></style></defs><path d="M810.666667 426.666667l0-128c0 0 0-298.666667-298.666667-298.666667C213.333333 0 213.333333 298.666667 213.333333 298.666667L213.333333 426.666667 85.333333 426.666667l0 597.333333 853.333333 0L938.666667 426.666667 810.666667 426.666667 810.666667 426.666667zM554.666667 756.053333l0 139.946667-85.333333 0 0-139.946667C443.733333 740.693333 426.666667 713.386667 426.666667 682.666667c0-47.786667 37.546667-85.333333 85.333333-85.333333 47.786667 0 85.333333 37.546667 85.333333 85.333333C597.333333 713.386667 580.266667 740.693333 554.666667 756.053333M725.333333 426.666667l-426.666667 0 0-128C298.666667 262.826667 312.32 85.333333 512 85.333333c199.68 0 213.333333 177.493333 213.333333 213.333333L725.333333 426.666667 725.333333 426.666667zM725.333333 426.666667" p-id="3627" fill="#1296db"></path></svg>